# xmcd CD database file
#
# Track frame offsets:
#	150
#	12198
#	25633
#	39642
#	52508
#	65871
#	78190
#	91416
#	106246
#	118183
#	129925
#	141160
#
# Disc length: 2058 seconds
#
# Revision: 2
# Processed by: cddbd v1.4PL0 Copyright (c) Steve Scherf et al.
# Submitted via: jetAudio 5
#
DISCID=9108080c
DTITLE=Sam and Dave - Star Power Series
DYEAR=1900
DGENRE=
TTITLE0=Hold on, I'm coming
TTITLE1=The Dock of the Bay
TTITLE2=Don't pull your love
TTITLE3=Said I wasn't gonna tell nobody
TTITLE4=I thank you
TTITLE5=You don't know like I know
TTITLE6=You got me hummin'
TTITLE7=When something is wrong with my baby
TTITLE8=Soul sister, brown sugar
TTITLE9=Can't you find another way
TTITLE10=You don't know what you mean to me
TTITLE11=Soul Man
EXTD=
EXTT0=
EXTT1=
EXTT2=
EXTT3=
EXTT4=
EXTT5=
EXTT6=
EXTT7=
EXTT8=
EXTT9=
EXTT10=
EXTT11=
PLAYORDER=
